<svg xmlns="http://www.w3.org/2000/svg" data-v-fde0c5aa="" class="font" viewBox="40 129.84 220 40.33">    <!---->    <defs data-v-fde0c5aa="">        <!---->    </defs>    <defs data-v-fde0c5aa="">        <linearGradient data-v-fde0c5aa="" gradientTransform="rotate(25)" id="2aff9ca7-1284-42e2-a61e-64de4df59c4d" x1="0%" y1="0%" x2="100%" y2="0%">            <stop data-v-fde0c5aa="" offset="0%" stop-color="#E90DDA" stop-opacity="1"></stop>            <stop data-v-fde0c5aa="" offset="100%" stop-color="#15CFF1" stop-opacity="1"></stop>        </linearGradient>    </defs>    <g data-v-fde0c5aa="" id="96f2db57-6ff7-4067-9850-aa6c7f3a8e5a" fill="url(#2aff9ca7-1284-42e2-a61e-64de4df59c4d)" transform="matrix(3.423591545073443,0,0,3.423591545073443,38.5620914939318,111.1764729889642)">        <path d="M4.05 7.69L4.05 7.69Q4.84 7.69 5.50 7.89Q6.15 8.09 6.59 8.41L6.59 8.41Q6.87 8.61 7.04 8.85Q7.20 9.09 7.20 9.46L7.20 9.46L7.20 14.36Q7.20 15.11 6.92 15.65Q6.64 16.18 6.15 16.54Q5.67 16.90 5.02 17.07Q4.37 17.23 3.63 17.23L3.63 17.23Q2.35 17.23 1.62 16.89Q0.90 16.55 0.90 15.78L0.90 15.78Q0.90 15.46 1.03 15.21Q1.16 14.97 1.33 14.84L1.33 14.84Q1.74 15.06 2.25 15.22Q2.76 15.37 3.30 15.37L3.30 15.37Q4.06 15.37 4.51 15.12Q4.96 14.87 4.96 14.31L4.96 14.31L4.96 14.08Q4.38 14.34 3.56 14.34L3.56 14.34Q2.93 14.34 2.36 14.15Q1.79 13.96 1.36 13.56Q0.94 13.16 0.68 12.53Q0.42 11.90 0.42 11.03L0.42 11.03Q0.42 10.18 0.69 9.55Q0.97 8.92 1.45 8.51Q1.93 8.09 2.60 7.89Q3.26 7.69 4.05 7.69ZM4.91 12.29L4.91 9.72Q4.82 9.66 4.63 9.60Q4.44 9.55 4.16 9.55L4.16 9.55Q3.47 9.55 3.13 9.93Q2.79 10.32 2.79 11.03L2.79 11.03Q2.79 11.84 3.13 12.20Q3.47 12.56 4.00 12.56L4.00 12.56Q4.58 12.56 4.91 12.29L4.91 12.29ZM15.71 11.30L15.71 11.30Q15.71 12.17 15.44 12.85Q15.18 13.52 14.69 13.99Q14.21 14.45 13.54 14.69Q12.87 14.92 12.04 14.92L12.04 14.92Q11.21 14.92 10.54 14.67Q9.87 14.42 9.39 13.95Q8.90 13.48 8.64 12.81Q8.37 12.14 8.37 11.30L8.37 11.30Q8.37 10.47 8.64 9.80Q8.90 9.13 9.39 8.66Q9.87 8.19 10.54 7.94Q11.21 7.69 12.04 7.69L12.04 7.69Q12.87 7.69 13.54 7.95Q14.21 8.20 14.69 8.67Q15.18 9.14 15.44 9.81Q15.71 10.49 15.71 11.30ZM10.81 11.30L10.81 11.30Q10.81 12.15 11.14 12.61Q11.47 13.06 12.05 13.06L12.05 13.06Q12.64 13.06 12.96 12.60Q13.27 12.14 13.27 11.30L13.27 11.30Q13.27 10.46 12.95 10.00Q12.63 9.55 12.04 9.55L12.04 9.55Q11.45 9.55 11.13 10.00Q10.81 10.46 10.81 11.30ZM19.82 12.10L16.83 12.10Q16.73 11.94 16.65 11.69Q16.56 11.44 16.56 11.16L16.56 11.16Q16.56 10.64 16.80 10.41Q17.04 10.18 17.42 10.18L17.42 10.18L20.41 10.18Q20.50 10.33 20.59 10.58Q20.68 10.84 20.68 11.12L20.68 11.12Q20.68 11.63 20.44 11.87Q20.20 12.10 19.82 12.10L19.82 12.10ZM21.53 11.30L21.53 11.30Q21.53 10.37 21.81 9.70Q22.09 9.02 22.59 8.57Q23.09 8.12 23.75 7.90Q24.42 7.69 25.19 7.69L25.19 7.69Q25.47 7.69 25.73 7.74Q26.00 7.78 26.17 7.85L26.17 7.85L26.17 5.59Q26.31 5.54 26.61 5.50Q26.92 5.45 27.24 5.45L27.24 5.45Q27.55 5.45 27.80 5.49Q28.04 5.53 28.21 5.66Q28.38 5.78 28.46 6.00Q28.55 6.22 28.55 6.57L28.55 6.57L28.55 13.20Q28.55 13.86 27.93 14.25L27.93 14.25Q27.52 14.52 26.88 14.72Q26.24 14.92 25.40 14.92L25.40 14.92Q24.49 14.92 23.77 14.67Q23.04 14.42 22.55 13.94Q22.05 13.47 21.79 12.80Q21.53 12.14 21.53 11.30ZM25.51 9.55L25.51 9.55Q24.75 9.55 24.35 9.98Q23.94 10.42 23.94 11.30L23.94 11.30Q23.94 12.17 24.32 12.61Q24.70 13.05 25.41 13.05L25.41 13.05Q25.66 13.05 25.86 12.97Q26.07 12.89 26.18 12.80L26.18 12.80L26.18 9.72Q25.90 9.55 25.51 9.55ZM33.63 14.92L33.63 14.92Q32.80 14.92 32.09 14.69Q31.39 14.46 30.86 14.00Q30.34 13.54 30.04 12.84Q29.74 12.14 29.74 11.20L29.74 11.20Q29.74 10.28 30.04 9.61Q30.34 8.95 30.83 8.52Q31.32 8.09 31.95 7.89Q32.58 7.69 33.24 7.69L33.24 7.69Q33.98 7.69 34.59 7.91Q35.20 8.13 35.64 8.53Q36.08 8.92 36.32 9.46Q36.57 10.01 36.57 10.65L36.57 10.65Q36.57 11.13 36.30 11.38Q36.04 11.63 35.56 11.70L35.56 11.70L32.10 12.22Q32.26 12.68 32.73 12.92Q33.21 13.15 33.82 13.15L33.82 13.15Q34.40 13.15 34.91 13.00Q35.42 12.85 35.74 12.66L35.74 12.66Q35.97 12.80 36.12 13.05Q36.27 13.30 36.27 13.58L36.27 13.58Q36.27 14.21 35.69 14.52L35.69 14.52Q35.24 14.76 34.68 14.84Q34.12 14.92 33.63 14.92ZM33.24 9.42L33.24 9.42Q32.90 9.42 32.66 9.53Q32.41 9.65 32.26 9.82Q32.10 10.00 32.02 10.21Q31.95 10.43 31.93 10.65L31.93 10.65L34.33 10.26Q34.29 9.98 34.02 9.70Q33.75 9.42 33.24 9.42ZM40.84 7.69L40.84 7.69Q41.68 7.69 42.40 7.90Q43.12 8.12 43.64 8.57Q44.16 9.02 44.45 9.70Q44.74 10.37 44.74 11.31L44.74 11.31Q44.74 12.21 44.49 12.88Q44.24 13.55 43.78 14.01Q43.32 14.46 42.66 14.69Q42.01 14.91 41.22 14.91L41.22 14.91Q40.61 14.91 40.10 14.73L40.10 14.73L40.10 17.05Q39.96 17.09 39.65 17.14Q39.34 17.19 39.02 17.19L39.02 17.19Q38.71 17.19 38.46 17.15Q38.22 17.11 38.05 16.98Q37.88 16.86 37.80 16.64Q37.72 16.42 37.72 16.07L37.72 16.07L37.72 9.35Q37.72 8.97 37.88 8.74Q38.04 8.50 38.32 8.30L38.32 8.30Q38.75 8.02 39.40 7.85Q40.04 7.69 40.84 7.69ZM40.87 13.03L40.87 13.03Q42.31 13.03 42.31 11.31L42.31 11.31Q42.31 10.42 41.95 9.98Q41.59 9.55 40.92 9.55L40.92 9.55Q40.66 9.55 40.45 9.61Q40.24 9.67 40.08 9.76L40.08 9.76L40.08 12.84Q40.25 12.92 40.45 12.98Q40.64 13.03 40.87 13.03ZM48.33 6.57L48.33 14.69Q48.17 14.71 47.87 14.76Q47.57 14.81 47.26 14.81L47.26 14.81Q46.96 14.81 46.71 14.77Q46.47 14.73 46.30 14.60Q46.13 14.48 46.04 14.26Q45.95 14.04 45.95 13.69L45.95 13.69L45.95 5.57Q46.10 5.54 46.40 5.50Q46.70 5.45 47.01 5.45L47.01 5.45Q47.32 5.45 47.56 5.49Q47.81 5.53 47.98 5.66Q48.15 5.78 48.24 6.00Q48.33 6.22 48.33 6.57L48.33 6.57ZM56.87 11.30L56.87 11.30Q56.87 12.17 56.60 12.85Q56.34 13.52 55.85 13.99Q55.37 14.45 54.70 14.69Q54.03 14.92 53.20 14.92L53.20 14.92Q52.37 14.92 51.70 14.67Q51.03 14.42 50.55 13.95Q50.06 13.48 49.80 12.81Q49.53 12.14 49.53 11.30L49.53 11.30Q49.53 10.47 49.80 9.80Q50.06 9.13 50.55 8.66Q51.03 8.19 51.70 7.94Q52.37 7.69 53.20 7.69L53.20 7.69Q54.03 7.69 54.70 7.95Q55.37 8.20 55.85 8.67Q56.34 9.14 56.60 9.81Q56.87 10.49 56.87 11.30ZM51.97 11.30L51.97 11.30Q51.97 12.15 52.30 12.61Q52.63 13.06 53.21 13.06L53.21 13.06Q53.80 13.06 54.12 12.60Q54.43 12.14 54.43 11.30L54.43 11.30Q54.43 10.46 54.11 10.00Q53.79 9.55 53.20 9.55L53.20 9.55Q52.61 9.55 52.29 10.00Q51.97 10.46 51.97 11.30ZM59.09 12.96L59.09 12.96Q58.94 12.61 58.77 12.18Q58.59 11.75 58.40 11.19Q58.21 10.63 58.01 9.91Q57.81 9.18 57.58 8.25L57.58 8.25Q57.78 8.05 58.11 7.90Q58.44 7.76 58.83 7.76L58.83 7.76Q59.32 7.76 59.64 7.96Q59.96 8.16 60.12 8.72L60.12 8.72L61.22 12.57L61.28 12.57Q61.45 12.10 61.61 11.54Q61.77 10.98 61.92 10.38Q62.08 9.79 62.21 9.19Q62.34 8.60 62.44 8.02L62.44 8.02Q62.94 7.76 63.55 7.76L63.55 7.76Q64.04 7.76 64.36 7.97Q64.68 8.18 64.68 8.69L64.68 8.69Q64.68 9.07 64.58 9.57Q64.48 10.07 64.32 10.63Q64.16 11.19 63.95 11.78Q63.73 12.38 63.49 12.95Q63.25 13.52 63 14.04Q62.75 14.55 62.51 14.95L62.51 14.95Q62.12 15.64 61.78 16.07Q61.45 16.51 61.14 16.75Q60.83 17.00 60.52 17.09Q60.21 17.18 59.88 17.18L59.88 17.18Q59.29 17.18 58.93 16.83Q58.56 16.48 58.49 15.92L58.49 15.92Q58.94 15.57 59.39 15.14Q59.84 14.71 60.20 14.27L60.20 14.27Q59.96 14.20 59.69 13.94Q59.42 13.68 59.09 12.96Z">        </path>    </g>    <!---->    <!----></svg>